HIERARCHY
ROOT hip
{
	OFFSET 0.000000 0.000000 0.000000 
	CHANNELS 6 Xposition Yposition Zposition Xrotation Zrotation Yrotation
	JOINT abdomen
	{
		OFFSET 0.000000 3.402643 0.000000 
		CHANNELS 3 Xrotation Zrotation Yrotation
		JOINT chest
		{
			OFFSET 0.000000 8.438565 -0.680529 
			CHANNELS 3 Xrotation Zrotation Yrotation
			JOINT neck
			{
				OFFSET 0.000000 10.207942 -0.272212 
				CHANNELS 3 Xrotation Zrotation Yrotation
				JOINT head
				{
					OFFSET 0.000000 3.130431 0.000000 
					CHANNELS 3 Xrotation Zrotation Yrotation
					End Site
					{
						OFFSET 0.000000 3.130435 0.000000 
					}
				}
			}
			JOINT lCollar
			{
				OFFSET 3.470700 6.669187 -0.816635 
				CHANNELS 3 Yrotation Zrotation Xrotation
				JOINT lShldr
				{
					OFFSET 3.198488 0.000000 0.000000 
					CHANNELS 3 Zrotation Yrotation Xrotation
					JOINT lForeArm
					{
						OFFSET 10.139888 0.000000 0.000000 
						CHANNELS 3 Yrotation Zrotation Xrotation
						JOINT lHand
						{
							OFFSET 8.370511 0.000000 0.000000 
							CHANNELS 3 Zrotation Yrotation Xrotation
							End Site
							{
								OFFSET 4.083176 0.000000 0.000000 
							}
						}
					}
				}
			}
			JOINT rCollar
			{
				OFFSET -3.470700 6.669187 -0.816635 
				CHANNELS 3 Yrotation Zrotation Xrotation
				JOINT rShldr
				{
					OFFSET -3.198488 0.000000 0.000000 
					CHANNELS 3 Zrotation Yrotation Xrotation
					JOINT rForeArm
					{
						OFFSET -10.139888 0.000000 0.000000 
						CHANNELS 3 Yrotation Zrotation Xrotation
						JOINT rHand
						{
							OFFSET -8.370511 0.000000 0.000000 
							CHANNELS 3 Zrotation Yrotation Xrotation
							End Site
							{
								OFFSET -4.083176 0.000000 0.000000 
							}
						}
					}
				}
			}
		}
	}
	JOINT lThigh
	{
		OFFSET 5.308129 -1.633274 1.361059 
		CHANNELS 3 Xrotation Zrotation Yrotation
		JOINT lShin
		{
			OFFSET -2.041588 -20.007561 0.000000 
			CHANNELS 3 Xrotation Zrotation Yrotation
			JOINT lFoot
			{
				OFFSET 0.000000 -19.190928 -1.224953 
				CHANNELS 3 Xrotation Yrotation Zrotation
				End Site
				{
					OFFSET 0.000000 -2.449906 4.627600 
				}
			}
		}
	}
	JOINT rThigh
	{
		OFFSET -5.308129 -1.633274 1.361059 
		CHANNELS 3 Xrotation Zrotation Yrotation
		JOINT rShin
		{
			OFFSET 2.041588 -20.007561 0.000000 
			CHANNELS 3 Xrotation Zrotation Yrotation
			JOINT rFoot
			{
				OFFSET 0.000000 -19.190928 -1.224953 
				CHANNELS 3 Xrotation Yrotation Zrotation
				End Site
				{
					OFFSET 0.000000 -2.449906 4.627600 
				}
			}
		}
	}
}
MOTION
Frames: 16
Frame Time: 0.031000
30.022596 46.181576 84.248917 8.632815 -0.038620 -163.394547 36.796703 7.669312 -8.872521 -20.839844 0.000000 0.000000 -52.756630 1.692187 0.877654 8.603516 0.000000 0.000000 -4.754609 -0.109183 -0.002653 -55.238411 -12.095914 7.749434 -81.516632 -31.676327 12.222200 10.710354 0.931290 10.538559 4.754609 0.109183 -0.002672 80.772049 -12.939524 -16.267282 1.539700 0.191366 32.643642 -7.944882 21.003593 48.279682 20.991682 8.485004 1.588377 50.552162 -1.533228 -4.570892 5.860653 0.892160 -1.567472 -16.725897 -8.181981 -9.317430 14.601607 3.132060 -5.968117 6.744364 4.692934 2.604726 
29.640844 45.916737 80.714508 9.820858 2.059246 -164.653259 38.126472 10.425193 -5.918994 -20.839844 0.000000 0.000000 -54.615013 1.562753 2.531787 8.603516 0.000000 0.000000 -4.754609 -0.109183 -0.002653 -62.702408 -6.499626 6.753209 -67.096817 -26.879538 18.700033 8.193352 -0.815239 10.850720 4.754609 0.109183 -0.002672 78.902275 -6.651496 -14.541789 2.441303 0.142554 33.044491 -8.102600 18.815495 51.106644 10.729357 10.886667 4.075770 64.717690 0.807347 -4.135396 -3.152349 0.416438 0.783315 -16.880306 -7.156070 -5.900351 24.842318 6.737876 -3.159668 0.548555 0.572271 1.193847 
29.351019 46.161602 77.503922 9.532063 2.687047 -166.589569 37.775906 10.578995 -3.851894 -20.839844 0.000000 0.000000 -54.486549 1.721408 3.017954 8.603516 0.000000 0.000000 -4.754609 -0.109183 -0.002653 -71.190552 -1.330730 4.338793 -51.686970 -19.019281 22.902445 4.560192 -1.357424 11.800226 4.754609 0.109183 -0.002672 78.329308 -0.388801 -12.217284 2.317293 0.140120 31.698252 -9.235053 16.398846 49.891953 -1.356942 10.444608 3.019436 73.540771 0.940192 -3.033165 -10.442293 1.947526 0.614178 -15.110455 -6.851613 -7.119486 29.502848 7.672843 -2.694730 -6.052698 2.851568 0.490072 
29.039700 46.810711 74.426247 8.581954 2.423760 -169.526825 36.600861 8.260227 -1.458349 -20.839844 0.000000 0.000000 -53.383518 1.778534 2.162819 8.603516 0.000000 0.000000 -4.754609 -0.109183 -0.002653 -76.930923 2.694707 1.364900 -39.344494 -12.243383 23.926231 1.755949 -0.894341 13.028930 4.754609 0.109183 -0.002672 79.949104 4.814498 -9.664236 2.629771 0.155156 28.451550 -10.449807 15.855495 45.423210 -12.710813 9.518233 3.085115 76.396950 -0.700706 -1.690167 -15.755976 3.705066 -0.797514 -11.520708 -7.165853 -7.980367 28.965528 8.160797 -1.841360 -10.089786 5.361104 0.012297 
28.656427 47.708672 71.436523 -172.301300 178.306412 7.729097 35.509987 4.992056 0.412286 -20.839844 0.000000 0.000000 -53.146172 1.646831 0.878912 8.603516 0.000000 0.000000 -4.754609 -0.109183 -0.002653 -79.390381 6.465899 -1.670875 -31.400743 -8.368995 22.943527 -0.231877 -0.199776 13.056696 4.754609 0.109183 -0.002672 82.663132 9.502596 -6.938439 2.484116 0.149651 25.620556 -10.971623 17.720070 41.717396 -21.910183 9.285180 4.258250 73.811272 -3.366179 -0.148164 -18.303125 5.054770 -0.582570 -5.885399 -7.669926 -8.806345 24.073322 8.189914 -1.300741 -11.615272 7.763381 0.249277 
28.230677 48.608643 68.543747 -172.977600 179.079224 5.914341 34.792770 2.126710 1.154046 -20.839844 0.000000 0.000000 -54.173298 1.499195 -0.101977 8.603516 0.000000 0.000000 -4.754609 -0.109183 -0.002653 -79.550377 10.556799 -3.894964 -27.458746 -6.683974 21.227076 -1.910821 0.922096 10.401859 4.754609 0.109183 -0.002672 85.401192 14.920439 -3.897521 -0.748542 0.103947 24.893681 -11.742739 21.970604 40.996952 -28.152483 9.843124 7.123617 66.006264 -5.707122 1.802269 -17.762703 3.734048 0.982367 1.893212 -7.321098 -11.647913 14.575533 6.343363 -3.061195 -9.933838 12.495704 2.146686 
27.851915 49.262253 65.717934 -173.408173 -179.825378 4.286432 34.518673 -1.055969 1.173862 -20.839844 0.000000 0.000000 -55.459412 1.318931 -0.525653 8.603516 0.000000 0.000000 -4.754609 -0.109183 -0.002653 -78.717804 15.054540 -5.674291 -26.622763 -6.760795 20.051430 -3.150671 1.733088 7.503637 4.754609 0.109183 -0.002672 87.980705 9.472751 -2.159868 17.094460 0.552243 29.219751 -9.503322 19.885548 41.339245 -30.340712 -8.622927 -16.918615 51.013321 4.726450 5.751922 -4.603179 33.482395 -15.832847 10.023769 -5.262154 -17.066893 3.344208 1.019916 -7.225172 -7.364779 21.756527 6.919700 
27.525118 49.637028 62.939579 -173.514069 -178.748291 2.289170 34.595554 -4.263275 1.197912 -20.839844 0.000000 0.000000 -56.161442 1.280396 -0.394164 8.603516 0.000000 0.000000 -4.754609 -0.109183 -0.002653 -77.694534 19.850525 -7.131852 -27.937632 -8.281202 20.367760 -3.473180 1.087085 6.329391 4.754609 0.109183 -0.002672 88.939682 2.365619 -1.221407 35.857494 2.842526 33.550831 -5.986983 13.921100 41.008293 -20.847151 -11.713271 -36.447628 22.691372 15.416995 -2.023759 31.322428 51.300354 -43.945110 15.391881 -4.559915 -22.231739 -2.087799 -1.845491 -9.649090 -7.032029 30.373096 9.461852 
26.943453 49.229767 59.800945 -173.319244 178.981567 -0.954779 33.971790 -2.700723 4.751111 -20.839844 0.000000 0.000000 -55.962479 1.519260 -0.132610 8.603516 0.000000 0.000000 -4.754609 -0.109183 -0.002653 -76.791245 24.374176 -7.710446 -30.138500 -10.393040 21.824846 -3.013293 -0.340023 5.839915 4.754609 0.109183 -0.002672 88.377228 -0.927431 -0.641530 46.407162 6.632540 34.734570 -4.709573 11.640261 40.400356 -21.997957 0.618041 -34.411301 5.682490 9.235710 -8.924108 42.431023 50.426285 -48.418175 20.283670 -3.038650 -24.034634 -4.819034 -1.379786 -10.414096 -7.079888 35.687954 9.644640 
26.288347 48.207878 56.330505 -173.101364 176.374023 -4.717490 33.095734 -0.893107 8.703926 -20.839844 0.000000 0.000000 -54.957035 1.884003 0.191364 8.603516 0.000000 0.000000 -4.754609 -0.109183 -0.002653 -75.655426 28.279526 -7.664788 -32.571056 -12.901052 23.205750 -2.690118 -1.080034 4.893364 4.754609 0.109183 -0.002672 87.728691 -2.992257 -0.062696 52.499203 9.591960 34.755310 -4.055964 10.285778 39.274948 -28.267153 8.215701 -53.417053 6.219042 -4.156446 13.403737 69.901459 39.096069 -55.262497 20.585503 -6.601733 -26.062681 6.699308 3.391087 -6.367159 -13.611420 37.194160 8.949614 
25.792637 47.456818 53.023975 -172.755844 176.018265 -7.677752 32.890720 -2.302539 9.693614 -20.839844 0.000000 0.000000 -53.521873 2.495723 0.721945 8.603516 0.000000 0.000000 -4.754609 -0.109183 -0.002653 -74.025482 30.677628 -6.711131 -34.210880 -15.479275 24.107496 -2.544224 -1.014189 3.047263 4.754609 0.109183 -0.002672 87.534401 -4.167780 0.369246 55.383995 11.370220 34.157345 -3.427646 9.487178 37.874195 -26.573635 17.142925 -66.980370 -5.403660 -2.901868 30.643810 27.078058 57.609108 -23.884378 22.646379 -10.858637 -25.689072 12.326099 6.091703 -0.931070 -15.154991 34.306393 6.652294 
25.416368 47.276428 50.038754 7.915180 3.491888 171.247192 33.258327 -3.821242 8.500584 -20.839844 0.000000 0.000000 -52.374401 3.432769 1.120761 8.603516 0.000000 0.000000 -4.754609 -0.109183 -0.002653 -72.266663 31.215242 -5.216842 -34.897099 -17.391357 25.182983 -2.362896 -0.839346 1.972732 4.754609 0.109183 -0.002672 88.313988 -4.542559 0.318311 55.177437 11.298309 33.399605 -2.286433 9.286139 36.879868 -24.070032 13.868304 -63.030155 -0.549627 -4.170365 -75.961960 -9.893620 159.186981 -12.918929 27.539661 -11.121854 -18.898470 7.971137 4.951368 1.747549 -10.515647 23.721640 5.577632 
25.166521 47.484802 47.309620 -171.559326 178.435104 -6.925833 34.223801 -5.449374 4.578350 -20.839844 0.000000 0.000000 -52.700882 3.990355 0.780105 8.603516 0.000000 0.000000 -4.754609 -0.109183 -0.002653 -70.748428 28.683786 -3.277845 -33.587910 -17.505903 27.106815 -2.524673 -1.033749 2.988676 4.754609 0.109183 -0.002672 90.013885 -4.319082 -0.535615 52.737503 9.244034 32.363297 -1.045459 9.641443 36.634720 -20.445839 7.999156 -43.536507 3.166509 0.816766 -9.688298 62.521114 58.218372 -57.658283 35.059830 -11.180363 -13.510591 -2.030329 4.802464 2.231179 0.687294 12.967009 5.075047 
24.929659 47.366875 44.677189 -171.385483 -179.034454 -3.964771 35.713142 -7.550102 0.225063 -20.839844 0.000000 0.000000 -54.069241 3.596016 -0.492274 8.603516 0.000000 0.000000 -4.754609 -0.109183 -0.002653 -69.357231 22.477131 -0.997063 -29.646118 -15.590566 29.686502 -3.253621 -1.165833 5.821488 4.754609 0.109183 -0.002672 91.908203 -3.629797 -1.736470 48.142464 6.245762 30.658138 -1.203478 10.040700 36.056648 -14.956409 -2.779097 -31.776642 6.363129 14.624762 -7.212937 43.858131 46.032688 -40.353535 30.126015 -13.848005 -12.386083 14.158937 4.302712 3.974635 2.855844 7.482777 5.874139 
24.631817 46.957630 42.178169 -171.689270 -177.207321 -2.859412 36.625099 -10.057446 -1.479490 -20.839844 0.000000 0.000000 -54.356266 2.749316 -2.120653 8.603516 0.000000 0.000000 -4.754609 -0.109183 -0.002653 -68.639244 14.029943 2.701830 -24.686968 -11.234000 33.365459 -3.936074 -0.985187 8.487583 4.754609 0.109183 -0.002672 93.186462 -1.342135 -2.110576 38.130310 2.963442 28.833330 -3.423291 11.146845 35.002518 -14.587912 -11.250381 -35.285194 17.578222 21.787109 -3.029592 39.653965 46.748989 -44.346603 21.410391 -16.764761 -11.433415 35.143143 2.574863 6.115464 2.291718 4.467618 7.775214 
24.328503 46.918652 39.886040 -172.456360 -176.475998 -3.083876 36.466930 -11.681752 -1.508383 -20.839844 0.000000 0.000000 -53.354950 2.507752 -3.424034 8.603516 0.000000 0.000000 -4.754609 -0.109183 -0.002653 -69.110214 5.629971 8.352658 -20.572741 -4.569611 38.398373 -3.056278 -1.127473 9.327811 4.754609 0.109183 -0.002672 93.250969 4.624202 -1.981602 19.651619 0.798446 26.710443 -7.956466 17.219244 36.970066 -14.667843 -15.142323 -35.839172 24.958475 23.025057 0.357045 34.136539 48.153389 -43.060799 11.649692 -17.725121 -9.092519 53.130737 -0.006936 6.716137 -1.837397 2.376673 10.057797 
